HIERARCHY
ROOT Hips
{
	OFFSET 0.000000 0.000000 0.000000
	CHANNELS 6 Xposition Yposition Zposition Xrotation Yrotation Zrotation
	JOINT LeftUpLeg_virtual
	{
		OFFSET 0.000000 0.000000 0.000000
		CHANNELS 3 Xrotation Yrotation Zrotation
		JOINT LeftUpLeg
		{
			OFFSET 11.394100 -6.187798 -0.413800
			CHANNELS 3 Xrotation Yrotation Zrotation
			JOINT LeftLeg
			{
				OFFSET 0.430247 -32.302673 3.732800
				CHANNELS 3 Xrotation Yrotation Zrotation
				JOINT LeftFoot
				{
					OFFSET -0.430247 -48.264931 -6.423300
					CHANNELS 3 Xrotation Yrotation Zrotation
					JOINT LeftToeBase
					{
						OFFSET 4.230900 -16.068199 23.438400
						CHANNELS 3 Xrotation Yrotation Zrotation
						JOINT LeftToe_End
						{
							OFFSET 4.510700 0.695400 19.974600
							CHANNELS 3 Xrotation Yrotation Zrotation
							End Site
							{
								OFFSET 0 0 0
							}
						}
					}
				}
			}
		}
	}
	JOINT RightUpLeg_virtual
	{
		OFFSET 0.000000 0.000000 0.000000
		CHANNELS 3 Xrotation Yrotation Zrotation
		JOINT RightUpLeg
		{
			OFFSET -11.333700 -6.187798 -0.413800
			CHANNELS 3 Xrotation Yrotation Zrotation
			JOINT RightLeg
			{
				OFFSET -0.430392 -32.302628 3.733000
				CHANNELS 3 Xrotation Yrotation Zrotation
				JOINT RightFoot
				{
					OFFSET 0.430392 -48.264973 -6.423500
					CHANNELS 3 Xrotation Yrotation Zrotation
					JOINT RightToeBase
					{
						OFFSET -4.230900 -16.068199 23.438400
						CHANNELS 3 Xrotation Yrotation Zrotation
						JOINT RightToe_End
						{
							OFFSET -4.510700 0.695400 19.974600
							CHANNELS 3 Xrotation Yrotation Zrotation
							End Site
							{
								OFFSET 0 0 0
							}
						}
					}
				}
			}
		}
	}
	JOINT Spine_virtual
	{
		OFFSET 0.000000 0.000000 0.000000
		CHANNELS 3 Xrotation Yrotation Zrotation
		JOINT Spine
		{
			OFFSET -0.002400 12.777504 0.315300
			CHANNELS 3 Xrotation Yrotation Zrotation
			JOINT Spine1
			{
				OFFSET -0.002067 5.816869 0.032633
				CHANNELS 3 Xrotation Yrotation Zrotation
				JOINT Spine1_split
				{
					OFFSET -0.002067 5.816869 0.032633
					CHANNELS 3 Xrotation Yrotation Zrotation
					JOINT Spine2
					{
						OFFSET -0.002067 5.816869 0.032633
						CHANNELS 3 Xrotation Yrotation Zrotation
						JOINT Neck_virtual
						{
							OFFSET 0.000000 0.000000 0.000000
							CHANNELS 3 Xrotation Yrotation Zrotation
							JOINT Neck
							{
								OFFSET -0.003700 21.199493 -0.826900
								CHANNELS 3 Xrotation Yrotation Zrotation
								JOINT Head
								{
									OFFSET 0.000000 20.442200 4.834800
									CHANNELS 3 Xrotation Yrotation Zrotation
									JOINT HeadTop_End
									{
										OFFSET 0.000000 34.668396 4.968400
										CHANNELS 3 Xrotation Yrotation Zrotation
										End Site
										{
											OFFSET 0 0 0
										}
									}
								}
							}
						}
						JOINT LeftShoulder_virtual
						{
							OFFSET 0.000000 0.000000 0.000000
							CHANNELS 3 Xrotation Yrotation Zrotation
							JOINT LeftShoulder
							{
								OFFSET 3.288150 8.794197 -1.372250
								CHANNELS 3 Xrotation Yrotation Zrotation
								JOINT LeftShoulder_split
								{
									OFFSET 3.288150 8.794197 -1.372250
									CHANNELS 3 Xrotation Yrotation Zrotation
									JOINT LeftArm
									{
										OFFSET 11.953299 -2.279007 -0.146200
										CHANNELS 3 Xrotation Yrotation Zrotation
										JOINT LeftForeArm
										{
											OFFSET 18.448900 0.000000 0.000000
											CHANNELS 3 Xrotation Yrotation Zrotation
											JOINT LeftHand
											{
												OFFSET 29.527798 0.000000 0.000000
												CHANNELS 3 Xrotation Yrotation Zrotation
												End Site
												{
													OFFSET 0 0 0
												}
											}
										}
									}
								}
							}
						}
						JOINT RightShoulder_virtual
						{
							OFFSET 0.000000 0.000000 0.000000
							CHANNELS 3 Xrotation Yrotation Zrotation
							JOINT RightShoulder
							{
								OFFSET -3.249400 8.794197 -1.372250
								CHANNELS 3 Xrotation Yrotation Zrotation
								JOINT RightShoulder_split
								{
									OFFSET -3.249400 8.794197 -1.372250
									CHANNELS 3 Xrotation Yrotation Zrotation
									JOINT RightArm
									{
										OFFSET -11.953299 -2.279007 -0.146200
										CHANNELS 3 Xrotation Yrotation Zrotation
										JOINT RightForeArm
										{
											OFFSET -18.448900 0.000000 0.000000
											CHANNELS 3 Xrotation Yrotation Zrotation
											JOINT RightHand
											{
												OFFSET -29.527802 0.000000 0.000000
												CHANNELS 3 Xrotation Yrotation Zrotation
												End Site
												{
													OFFSET 0 0 0
												}
											}
										}
									}
								}
							}
						}
					}
				}
			}
		}
	}
}
MOTION
Frames: 11
Frame Time: 0.03333333
-1.607133 89.460320 -4.585907 0.000000 0.000000 0.000000 31.026384 -62.408217 34.019728 -60.158961 5.116855 3.197602 38.599370 -8.185640 2.427661 9.838897 -10.805959 6.294658 6.486772 3.065151 -0.820831 0.000000 0.000000 0.000000 31.187655 -62.406004 34.280036 -42.144992 -2.280261 -14.405651 49.929140 5.516849 -4.056849 -19.800531 -12.597943 20.730577 4.304066 5.701135 -18.528963 0.000000 0.000000 0.000000 24.628843 -57.481171 28.567505 2.162805 7.805636 6.767181 11.223807 3.107080 7.293753 0.071118 -0.973418 0.146660 0.000000 0.000000 0.000000 13.203296 5.817679 7.338109 -5.920821 9.242236 12.487686 3.688775 -50.825869 -18.758358 0.000000 0.000000 0.000000 11.364056 3.270185 6.736406 -0.992743 -5.883917 -4.913650 5.654318 2.481118 -4.328069 -51.084501 -33.827656 -98.394606 3.499085 -18.309483 3.192807 0.000000 0.000000 0.000000 11.847182 3.619616 7.976994 2.713949 12.010255 17.823399 -14.784827 -3.149577 -1.234319 -48.881437 10.786124 77.328629 -3.820226 -4.445917 3.371678 0.000000 0.000000 0.000000 
-1.602309 89.496056 -4.440483 0.000000 0.000000 0.000000 31.120743 -62.388976 34.057471 -60.215132 5.108432 3.176781 38.550076 -8.120960 2.425075 9.901625 -10.828757 6.342780 6.411819 3.061034 -0.753649 0.000000 0.000000 0.000000 31.240814 -62.360816 34.283687 -42.091239 -2.283038 -14.378791 49.896902 5.507990 -4.057840 -19.824925 -12.610516 20.694006 4.302231 5.713897 -18.497708 0.000000 0.000000 0.000000 24.680783 -57.411490 28.554598 2.119931 7.812749 6.760668 11.240044 3.099794 7.286357 0.074150 -0.968794 0.149693 0.000000 0.000000 0.000000 13.211144 5.819622 7.337997 -5.878015 9.298467 12.498071 3.585553 -50.729577 -18.816647 0.000000 0.000000 0.000000 11.379811 3.266254 6.749537 -0.986779 -5.789759 -4.971149 5.754576 2.434680 -4.269419 -51.075612 -33.884452 -98.423470 3.509752 -18.297356 3.180915 0.000000 0.000000 0.000000 11.852643 3.609502 7.981835 2.711258 11.988574 17.841887 -14.667386 -3.048405 -1.178465 -48.710034 10.714518 77.321976 -3.829057 -4.431417 3.387886 0.000000 0.000000 0.000000 
-1.591976 89.559067 -4.283360 0.000000 0.000000 0.000000 31.194840 -62.310737 34.079369 -60.210283 5.112513 3.102654 38.461393 -7.971938 2.419097 9.932845 -10.835757 6.417246 6.215098 3.063263 -0.655437 0.000000 0.000000 0.000000 31.313234 -62.308428 34.316387 -42.058222 -2.350680 -14.414681 49.804630 5.515079 -4.061226 -19.713538 -12.624158 20.783031 4.123135 5.779511 -18.470119 0.000000 0.000000 0.000000 24.740352 -57.317158 28.535233 2.059741 7.822478 6.735176 11.252072 3.113340 7.264961 0.077389 -0.974110 0.149128 0.000000 0.000000 0.000000 13.235728 5.836498 7.318495 -5.668415 9.380893 12.573172 3.524572 -50.651276 -18.874121 0.000000 0.000000 0.000000 11.397135 3.277260 6.745473 -0.967637 -5.676829 -5.010079 5.838523 2.384286 -4.208381 -51.049691 -33.980423 -98.464253 3.513332 -18.341851 3.184989 0.000000 0.000000 0.000000 11.873758 3.608740 7.958869 2.706903 11.909504 17.891225 -14.610377 -2.962186 -1.176691 -48.355410 10.898094 77.285558 -3.800455 -4.381604 3.379276 0.000000 0.000000 0.000000 
-1.567268 89.625748 -4.134785 0.000000 0.000000 0.000000 31.205816 -62.178709 34.054490 -60.158319 5.153105 2.993486 38.402397 -7.757700 2.413278 9.893627 -10.822891 6.504011 6.089144 3.075165 -0.599569 0.000000 0.000000 0.000000 31.361599 -62.237094 34.339019 -42.037898 -2.451850 -14.494223 49.664259 5.542887 -4.069075 -19.539621 -12.655693 20.980990 3.880057 5.875800 -18.458224 0.000000 0.000000 0.000000 24.763262 -57.201844 28.492652 1.995598 7.831027 6.687753 11.266808 3.142620 7.232479 0.076115 -0.986465 0.147913 0.000000 0.000000 0.000000 13.276319 5.864672 7.283046 -5.309129 9.478256 12.700193 3.500980 -50.613799 -18.921839 0.000000 0.000000 0.000000 11.416541 3.300156 6.721246 -0.934805 -5.563824 -5.027000 5.879890 2.347005 -4.191066 -51.007211 -34.140800 -98.489846 3.509498 -18.443700 3.203113 0.000000 0.000000 0.000000 11.902779 3.618030 7.913478 2.706906 11.782320 17.953067 -14.581764 -2.901033 -1.207941 -47.897262 11.307932 77.252616 -3.739480 -4.306134 3.351819 0.000000 0.000000 0.000000 
-1.526263 89.678070 -3.961567 0.000000 0.000000 0.000000 31.140058 -62.011930 33.975946 -60.103397 5.211807 2.850014 38.431043 -7.540525 2.422873 9.828232 -10.805950 6.574586 6.137923 3.097184 -0.624099 0.000000 0.000000 0.000000 31.354175 -62.114615 34.307603 -42.001217 -2.566937 -14.587428 49.536271 5.569041 -4.080448 -19.445197 -12.745420 21.160531 3.834530 5.958932 -18.462855 0.000000 0.000000 0.000000 24.723340 -57.070776 28.414557 1.948536 7.826019 6.615665 11.292506 3.179799 7.190031 0.073614 -1.002925 0.148810 0.000000 0.000000 0.000000 13.329105 5.897326 7.237367 -4.843389 9.582406 12.852767 3.504362 -50.637366 -18.957743 0.000000 0.000000 0.000000 11.437175 3.329001 6.677512 -0.888919 -5.467371 -5.021205 5.874119 2.341460 -4.226133 -50.940398 -34.398943 -98.471431 3.509824 -18.587530 3.237937 0.000000 0.000000 0.000000 11.931897 3.636748 7.852464 2.714444 11.624191 18.007741 -14.539734 -2.834636 -1.246498 -47.426487 11.865642 77.242766 -3.653919 -4.205263 3.319437 0.000000 0.000000 0.000000 
-1.472636 89.699890 -3.772228 0.000000 0.000000 0.000000 30.994159 -61.826818 33.828933 -60.075544 5.271744 2.694786 38.548570 -7.370450 2.446615 9.782064 -10.816623 6.625096 6.232872 3.127227 -0.671927 0.000000 0.000000 0.000000 31.254167 -61.924735 34.176245 -41.935172 -2.676097 -14.671246 49.460357 5.566643 -4.089265 -19.487228 -12.924193 21.254178 4.035059 6.013960 -18.489426 0.000000 0.000000 0.000000 24.615157 -56.929330 28.294455 1.930691 7.797284 6.526702 11.332531 3.217574 7.139456 0.069362 -1.021065 0.147340 0.000000 0.000000 0.000000 13.386394 5.930652 7.185783 -4.319318 9.691003 13.008159 3.523879 -50.733330 -18.990923 0.000000 0.000000 0.000000 11.460396 3.359979 6.615328 -0.832045 -5.392422 -5.002267 5.851292 2.359825 -4.276348 -50.858900 -34.777315 -98.401456 3.529433 -18.774020 3.291376 0.000000 0.000000 0.000000 11.956671 3.662280 7.781212 2.725717 11.456881 18.036907 -14.445469 -2.739816 -1.304723 -47.027287 12.464803 77.268024 -3.548998 -4.088547 3.297441 0.000000 0.000000 0.000000 
-1.404218 89.686005 -3.556881 0.000000 0.000000 0.000000 30.797374 -61.634124 33.616750 -60.105713 5.361416 2.564831 38.717470 -7.235030 2.455844 9.771442 -10.858549 6.707179 6.232134 3.161188 -0.699200 0.000000 0.000000 0.000000 31.062047 -61.689811 33.935850 -41.873339 -2.746502 -14.748993 49.442739 5.554985 -4.104540 -19.553699 -13.171730 21.384410 4.208627 6.070914 -18.547618 0.000000 0.000000 0.000000 24.455231 -56.787648 28.129723 1.943942 7.741268 6.438267 11.381055 3.247555 7.084007 0.064708 -1.034127 0.150519 0.000000 0.000000 0.000000 13.440569 5.962553 7.129757 -3.777418 9.808744 13.126012 3.559944 -50.883861 -19.017813 0.000000 0.000000 0.000000 11.486914 3.389402 6.540511 -0.767215 -5.334454 -4.988730 5.825482 2.397709 -4.311701 -50.763431 -35.300234 -98.292296 3.582313 -19.022864 3.364008 0.000000 0.000000 0.000000 11.972017 3.691462 7.701163 2.734028 11.300544 18.037963 -14.295950 -2.645187 -1.343289 -46.722210 13.028166 77.334400 -3.430265 -3.935603 3.299741 0.000000 0.000000 0.000000 
-1.322568 89.654617 -3.306309 0.000000 0.000000 0.000000 30.614270 -61.459593 33.377362 -60.207189 5.513667 2.486609 38.921427 -7.101767 2.420693 9.805404 -10.913594 6.865591 6.141071 3.193484 -0.739436 0.000000 0.000000 0.000000 30.830395 -61.460706 33.628276 -41.827098 -2.769481 -14.814660 49.492323 5.558054 -4.140827 -19.503226 -13.449191 21.676688 4.190736 6.140317 -18.617885 0.000000 0.000000 0.000000 24.321554 -56.686732 27.955744 1.981909 7.660937 6.368442 11.429996 3.270262 7.024571 0.063280 -1.038432 0.154359 0.000000 0.000000 0.000000 13.484073 5.990437 7.071002 -3.254265 9.938330 13.177007 3.617995 -51.074266 -19.041205 0.000000 0.000000 0.000000 11.513068 3.417965 6.459496 -0.697292 -5.285159 -4.998551 5.789667 2.443122 -4.318010 -50.627261 -35.952186 -98.148200 3.670154 -19.330583 3.453242 0.000000 0.000000 0.000000 11.980803 3.722125 7.615127 2.733730 11.163105 18.015870 -14.121799 -2.576438 -1.360299 -46.488877 13.535890 77.415707 -3.299866 -3.699122 3.334822 0.000000 0.000000 0.000000 
-1.235378 89.623032 -3.001465 0.000000 0.000000 0.000000 30.502655 -61.340652 33.145679 -60.366353 5.750125 2.500735 39.155876 -6.939950 2.335399 9.866668 -10.963879 7.070190 6.017639 3.231167 -0.812304 0.000000 0.000000 0.000000 30.686199 -61.294951 33.364617 -41.803493 -2.759361 -14.851321 49.543597 5.590352 -4.197300 -19.359801 -13.720205 22.090562 4.106874 6.201732 -18.646200 0.000000 0.000000 0.000000 24.265482 -56.654032 27.797658 2.021143 7.571544 6.337006 11.469053 3.289831 6.968149 0.060203 -1.038938 0.152957 0.000000 0.000000 0.000000 13.515357 6.015404 7.010620 -2.749728 10.079384 13.136300 3.698334 -51.313562 -19.060259 0.000000 0.000000 0.000000 11.538790 3.446715 6.378678 -0.622469 -5.231568 -5.042967 5.764730 2.508892 -4.301130 -50.437757 -36.685458 -97.970260 3.794817 -19.703344 3.551542 0.000000 0.000000 0.000000 11.989776 3.753726 7.526175 2.726018 11.048978 17.972745 -13.940795 -2.524838 -1.376772 -46.274419 14.022759 77.489077 -3.157128 -3.386279 3.394250 0.000000 0.000000 0.000000 
-1.140560 89.586266 -2.626839 0.000000 0.000000 0.000000 30.539760 -61.325687 33.002859 -60.541472 6.090849 2.593956 39.422336 -6.711524 2.209513 9.874270 -10.973691 7.299386 5.929880 3.276639 -0.912228 0.000000 0.000000 0.000000 30.694587 -61.245131 33.213233 -41.829171 -2.732721 -14.856435 49.524732 5.645872 -4.269531 -19.278240 -13.971581 22.454197 4.166076 6.239934 -18.579431 0.000000 0.000000 0.000000 24.332829 -56.725308 27.695138 2.049815 7.489018 6.340406 11.492847 3.309807 6.917492 0.062477 -1.035756 0.152497 0.000000 0.000000 0.000000 13.541690 6.041082 6.951649 -2.252507 10.234426 12.991731 3.761024 -51.581373 -19.113521 0.000000 0.000000 0.000000 11.563199 3.474862 6.303851 -0.543784 -5.172078 -5.121559 5.718712 2.613370 -4.273921 -50.162374 -37.439484 -97.742814 3.957943 -20.147221 3.659462 0.000000 0.000000 0.000000 12.002726 3.785812 7.441684 2.716763 10.955735 17.919944 -13.783149 -2.460044 -1.401619 -46.006016 14.547123 77.540788 -3.000961 -3.026150 3.461146 0.000000 0.000000 0.000000 
-1.046546 89.527725 -2.192795 0.000000 0.000000 0.000000 30.729492 -61.438959 32.998300 -60.681996 6.523999 2.715768 39.709743 -6.381168 2.079116 9.717329 -10.947513 7.539167 5.866477 3.321738 -1.013845 0.000000 0.000000 0.000000 30.822140 -61.299309 33.166316 -41.904348 -2.732674 -14.841350 49.467481 5.669360 -4.338026 -19.295703 -14.184479 22.564264 4.424102 6.270732 -18.411589 0.000000 0.000000 0.000000 24.511512 -56.895916 27.661175 2.071286 7.428929 6.363410 11.505691 3.337197 6.872541 0.070266 -1.041045 0.152537 0.000000 0.000000 0.000000 13.571859 6.070063 6.897681 -1.752774 10.402312 12.756854 3.735582 -51.883886 -19.262815 0.000000 0.000000 0.000000 11.580792 3.502567 6.235041 -0.463101 -5.116210 -5.222358 5.678409 2.757273 -4.248819 -49.817019 -38.152320 -97.459669 4.162799 -20.639165 3.774052 0.000000 0.000000 0.000000 12.015883 3.816912 7.368465 2.711354 10.873758 17.861845 -13.630845 -2.374971 -1.409596 -45.649542 15.139545 77.545904 -2.834383 -2.630962 3.522368 0.000000 0.000000 0.000000 
